{
  "accessors": [
    {
      "bufferView": 1,
      "componentType": 5126,
      "count": 3644,
      "max": [
        0.20834000408649445,
        0.99900001287460327,
        -0.27261000871658325
      ],
      "min": [
        0.001610000035725534,
        0.81186997890472412,
        -0.32651999592781067
      ],
      "type": "VEC3"
    },
    {
      "bufferView": 1,
      "byteOffset": 43728,
      "componentType": 5126,
      "count": 3644,
      "max": [
        0.99999988079071045,
        1,
        1
      ],
      "min": [
        -0.9999997615814209,
        -0.99999570846557617,
        -1
      ],
      "type": "VEC3"
    },
    {
      "bufferView": 0,
      "componentType": 5125,
      "count": 7326,
      "max": [
        3643
      ],
      "min": [
        0
      ],
      "type": "SCALAR"
    },
    {
      "bufferView": 1,
      "byteOffset": 87456,
      "componentType": 5126,
      "count": 792,
      "max": [
        0.16519999504089355,
        0.92058002948760986,
        -0.27261000871658325
      ],
      "min": [
        0.10938999801874161,
        0.86416000127792358,
        -0.32651999592781067
      ],
      "type": "VEC3"
    },
    {
      "bufferView": 1,
      "byteOffset": 96960,
      "componentType": 5126,
      "count": 792,
      "max": [
        0.9999995231628418,
        0.9999852180480957,
        1
      ],
      "min": [
        -0.99997109174728394,
        -0.99999964237213135,
        -1
      ],
      "type": "VEC3"
    },
    {
      "bufferView": 0,
      "byteOffset": 29304,
      "componentType": 5125,
      "count": 1572,
      "max": [
        791
      ],
      "min": [
        0
      ],
      "type": "SCALAR"
    }
  ],
  "asset": {
    "extras": {
      "author": "shahrukh7587 (https://sketchfab.com/shahrukh7587)",
      "license": "CC-BY-4.0 (http://creativecommons.org/licenses/by/4.0/)",
      "source": "https://sketchfab.com/3d-models/blender-logo-f4105cc7de434f2cbbc3b3d12343bb8f",
      "title": "Blender Logo"
    },
    "generator": "Sketchfab-6.34.0",
    "version": "2.0"
  },
  "bufferViews": [
    {
      "buffer": 0,
      "byteLength": 35592,
      "byteOffset": 0,
      "name": "floatBufferViews",
      "target": 34963
    },
    {
      "buffer": 0,
      "byteLength": 106464,
      "byteOffset": 35592,
      "byteStride": 12,
      "name": "floatBufferViews",
      "target": 34962
    }
  ],
  "buffers": [
    {
      "byteLength": 142056,
      "uri": "scene.bin"
    }
  ],
  "materials": [
    {
      "doubleSided": true,
      "emissiveFactor": [
        0,
        0,
        0
      ],
      "name": "SVGMat.002",
      "pbrMetallicRoughness": {
        "baseColorFactor": [
          0.99110209940000005,
          0.1589608341,
          0.014443843600000001,
          1
        ],
        "metallicFactor": 0,
        "roughnessFactor": 0.59999999999999998
      }
    },
    {
      "doubleSided": true,
      "emissiveFactor": [
        0,
        0,
        0
      ],
      "name": "SVGMat.003",
      "pbrMetallicRoughness": {
        "baseColorFactor": [
          0,
          0.084376208499999994,
          0.2307400554,
          1
        ],
        "metallicFactor": 0,
        "roughnessFactor": 0.59999999999999998
      }
    }
  ],
  "meshes": [
    {
      "name": "Curve.001_0",
      "primitives": [
        {
          "attributes": {
            "NORMAL": 1,
            "POSITION": 0
          },
          "indices": 2,
          "material": 0,
          "mode": 4
        }
      ]
    },
    {
      "name": "Curve.001_1",
      "primitives": [
        {
          "attributes": {
            "NORMAL": 4,
            "POSITION": 3
          },
          "indices": 5,
          "material": 1,
          "mode": 4
        }
      ]
    }
  ],
  "nodes": [
    {
      "children": [
        1
      ],
      "name": "RootNode (gltf orientation matrix)",
      "rotation": [
        -0.70710678118654746,
        -0,
        -0,
        0.70710678118654757
      ]
    },
    {
      "children": [
        2
      ],
      "name": "RootNode (model correction matrix)"
    },
    {
      "children": [
        3,
        5
      ],
      "name": "Root"
    },
    {
      "children": [
        4
      ],
      "matrix": [
        -0.29086000000000006,
        0.95517000000000007,
        -0.05519000000000001,
        0,
        -0.77110000000000001,
        -0.19988000000000003,
        0.60452000000000006,
        0,
        0.56639000000000006,
        0.21839000000000003,
        0.7946700000000001,
        0,
        4.0762500000000008,
        1.00545,
        5.9038600000000008,
        1
      ],
      "name": "Lamp"
    },
    {
      "name": "Lamp"
    },
    {
      "children": [
        6,
        7
      ],
      "matrix": [
        4.1095799999999993,
        0,
        0,
        0,
        0,
        -0,
        4.1095799999999993,
        0,
        0,
        -4.1095799999999993,
        -0,
        0,
        -0.47343000000000002,
        -1.5630299999999999,
        -2.3566499999999992,
        1
      ],
      "name": "Curve.001"
    },
    {
      "mesh": 0,
      "name": "Curve.001_0"
    },
    {
      "mesh": 1,
      "name": "Curve.001_1"
    }
  ],
  "scene": 0,
  "scenes": [
    {
      "name": "OSG_Scene",
      "nodes": [
        0
      ]
    }
  ]
}

